<?xml version="1.0" encoding="utf-8"?>
<!-- Generator: Adobe Illustrator 25.3.0, SVG Export Plug-In . SVG Version: 6.00 Build 0)  -->
<svg version="1.1" id="skyline_x25_20logo_x25_20standalone.fw-Page_x25_201"
	 xmlns="http://www.w3.org/2000/svg" xmlns:xlink="http://www.w3.org/1999/xlink" x="0px" y="0px" viewBox="0 0 2048 1024"
	 enable-background="new 0 0 2048 1024" xml:space="preserve">
<rect fill="#121212" width="2048" height="1024"/>
<g>
	<g>
		
			<linearGradient id="SVGID_1_" gradientUnits="userSpaceOnUse" x1="767.4857" y1="767.8679" x2="767.6185" y2="768.2411" gradientTransform="matrix(1378.5713 0 0 -1347.8571 -1057667.625 1035739.5625)">
			<stop  offset="0" style="stop-color:#E8DDE7"/>
			<stop  offset="1" style="stop-color:#F6F6F6"/>
		</linearGradient>
		<path fill="url(#SVGID_1_)" d="M354.1,682.6c0,44.5,28.2,82.4,67.7,96.8c39.5-14.4,95.9-52.3,95.9-96.8
			c0-44.5-56.4-82.4-95.9-96.8C382.3,600.3,354.1,638.2,354.1,682.6z M491.6,438.4c39.9-14.2,68.4-52.3,68.4-97
			c0-42-25.2-78.2-61.3-94.2c-39.9,14.2-96.6,52.3-96.6,97C402.1,386.2,455.5,422.4,491.6,438.4z M184.9,513.4
			c0,56.9,46.1,103,103,103c39.1,0,73.1-21.8,90.5-53.9c-45.4-49.8-68.7-84.3-105.6-150.9C223.1,418.8,184.9,461.7,184.9,513.4z
			 M644.1,614.8c48.4-8.4,85.2-50.6,85.2-101.4c0-56.9-46.1-103-103-103c-38.5,0-72.1,21.2-89.8,52.5
			C578.4,509.9,613.6,552.2,644.1,614.8z"/>
		<g opacity="0.6" style="mix-blend-mode: color-burn">
			<g>
				
					<radialGradient id="SVGID_2_" cx="385.034" cy="342.5937" r="397.2559" gradientTransform="matrix(1 0 0 -1 0 1024)" gradientUnits="userSpaceOnUse">
					<stop  offset="0" style="stop-color:#1757FF"/>
					<stop  offset="0.6667" style="stop-color:#1757FF"/>
					<stop  offset="1" style="stop-color:#E8DDE7"/>
				</radialGradient>
				<path fill="url(#SVGID_2_)" d="M644.1,614.8c48.4-8.4,85.2-50.6,85.2-101.4c0-56.9-46.1-103-103-103
					c-38.5,0-72.1,21.2-89.8,52.5C578.4,509.9,613.6,552.2,644.1,614.8z"/>
				
					<radialGradient id="SVGID_3_" cx="534.3011" cy="681.0115" r="397.2559" gradientTransform="matrix(1 0 0 -1 0 1024)" gradientUnits="userSpaceOnUse">
					<stop  offset="0" style="stop-color:#1757FF"/>
					<stop  offset="0.6667" style="stop-color:#1757FF"/>
					<stop  offset="1" style="stop-color:#E8DDE7"/>
				</radialGradient>
				<path fill="url(#SVGID_3_)" d="M184.9,513.4c0,56.9,46.1,103,103,103c39.1,0,73.1-21.8,90.5-53.9
					c-45.4-49.8-68.7-84.3-105.6-150.9C223.1,418.8,184.9,461.7,184.9,513.4z"/>
				
					<radialGradient id="SVGID_4_" cx="534.3011" cy="681.0115" r="104.2501" gradientTransform="matrix(1 0 0 -1 0 1024)" gradientUnits="userSpaceOnUse">
					<stop  offset="0" style="stop-color:#FFFFFF"/>
					<stop  offset="1" style="stop-color:#1757FF"/>
				</radialGradient>
				<path fill="url(#SVGID_4_)" d="M491.6,438.4c39.9-14.2,68.4-52.3,68.4-97c0-42-25.2-78.2-61.3-94.2
					c-39.9,14.2-96.6,52.3-96.6,97C402.1,386.2,455.5,422.4,491.6,438.4z"/>
				
					<radialGradient id="SVGID_5_" cx="385.034" cy="342.5937" r="104.2501" gradientTransform="matrix(1 0 0 -1 0 1024)" gradientUnits="userSpaceOnUse">
					<stop  offset="0" style="stop-color:#FFFFFF"/>
					<stop  offset="1" style="stop-color:#1757FF"/>
				</radialGradient>
				<path fill="url(#SVGID_5_)" d="M354.1,682.6c0,44.5,28.2,82.4,67.7,96.8c39.5-14.4,95.9-52.3,95.9-96.8s-56.4-82.4-95.9-96.8
					C382.3,600.3,354.1,638.2,354.1,682.6z"/>
			</g>
			<defs>
				<filter id="Adobe_OpacityMaskFilter" filterUnits="userSpaceOnUse" x="184.9" y="247.2" width="544.4" height="532.3">
					<feColorMatrix  type="matrix" values="1 0 0 0 0  0 1 0 0 0  0 0 1 0 0  0 0 0 1 0"/>
				</filter>
			</defs>
			<mask maskUnits="userSpaceOnUse" x="184.9" y="247.2" width="544.4" height="532.3" id="mask1_1_">
				
					<linearGradient id="SVGID_6_" gradientUnits="userSpaceOnUse" x1="767.6738" y1="768.1221" x2="767.617" y2="767.9178" gradientTransform="matrix(1496 0 0 -1462 -1147956 1123356)">
					<stop  offset="0" style="stop-color:#FFFFFF"/>
					<stop  offset="1" style="stop-color:#000000"/>
				</linearGradient>
				<rect x="144.2" y="229.3" fill="url(#SVGID_6_)" filter="url(#Adobe_OpacityMaskFilter)" width="590.8" height="577.3"/>
			</mask>
			<g mask="url(#mask1_1_)">
				
					<radialGradient id="SVGID_7_" cx="385.034" cy="342.5937" r="397.2559" gradientTransform="matrix(1 0 0 -1 0 1024)" gradientUnits="userSpaceOnUse">
					<stop  offset="0" style="stop-color:#FF1F5E"/>
					<stop  offset="0.6667" style="stop-color:#FF1F5E"/>
					<stop  offset="1" style="stop-color:#E8DDE7"/>
				</radialGradient>
				<path fill="url(#SVGID_7_)" d="M644.1,614.8c48.4-8.4,85.2-50.6,85.2-101.4c0-56.9-46.1-103-103-103
					c-38.5,0-72.1,21.2-89.8,52.5C578.4,509.9,613.6,552.2,644.1,614.8z"/>
				
					<radialGradient id="SVGID_8_" cx="534.3011" cy="681.0115" r="397.2559" gradientTransform="matrix(1 0 0 -1 0 1024)" gradientUnits="userSpaceOnUse">
					<stop  offset="0" style="stop-color:#FF1F5E"/>
					<stop  offset="0.6667" style="stop-color:#FF1F5E"/>
					<stop  offset="1" style="stop-color:#E8DDE7"/>
				</radialGradient>
				<path fill="url(#SVGID_8_)" d="M184.9,513.4c0,56.9,46.1,103,103,103c39.1,0,73.1-21.8,90.5-53.9
					c-45.4-49.8-68.7-84.3-105.6-150.9C223.1,418.8,184.9,461.7,184.9,513.4z"/>
				
					<radialGradient id="SVGID_9_" cx="534.3011" cy="681.0115" r="104.2501" gradientTransform="matrix(1 0 0 -1 0 1024)" gradientUnits="userSpaceOnUse">
					<stop  offset="0" style="stop-color:#FFFFFF"/>
					<stop  offset="1" style="stop-color:#FF1F5E"/>
				</radialGradient>
				<path fill="url(#SVGID_9_)" d="M491.6,438.4c39.9-14.2,68.4-52.3,68.4-97c0-42-25.2-78.2-61.3-94.2
					c-39.9,14.2-96.6,52.3-96.6,97C402.1,386.2,455.5,422.4,491.6,438.4z"/>
				
					<radialGradient id="SVGID_10_" cx="385.034" cy="342.5937" r="104.2501" gradientTransform="matrix(1 0 0 -1 0 1024)" gradientUnits="userSpaceOnUse">
					<stop  offset="0" style="stop-color:#FFFFFF"/>
					<stop  offset="1" style="stop-color:#FF1F5E"/>
				</radialGradient>
				<path fill="url(#SVGID_10_)" d="M354.1,682.6c0,44.5,28.2,82.4,67.7,96.8c39.5-14.4,95.9-52.3,95.9-96.8s-56.4-82.4-95.9-96.8
					C382.3,600.3,354.1,638.2,354.1,682.6z"/>
			</g>
		</g>
		
			<linearGradient id="SVGID_11_" gradientUnits="userSpaceOnUse" x1="766.5871" y1="768.3387" x2="766.5871" y2="767.9092" gradientTransform="matrix(636.4644 0 0 -1372.5001 -487506.9688 1054656.5)">
			<stop  offset="0" style="stop-color:#FF1F5E"/>
			<stop  offset="1" style="stop-color:#1E58F0"/>
		</linearGradient>
		<path fill="url(#SVGID_11_)" d="M421.8,779.4c11,4,22.9,6.2,35.3,6.2c24.5,0,47-8.6,64.7-22.8l2.4-158.3
			c-18-15.5-41.4-24.8-67-24.8c-12.4,0-24.3,2.2-35.3,6.2c39.5,14.4,67.7,52.3,67.7,96.8C489.5,727.1,461.3,765,421.8,779.4z
			 M378.4,562.5c7.9-14.6,12.4-31.3,12.4-49.1c0-56.9-46.1-103-103-103c-5.1,0-10.1,0.4-15.1,1.1
			C289.2,473.5,327.3,526.7,378.4,562.5z M354.1,341.4c0,45.5,29.5,84.1,70.5,97.7V243.6C383.7,257.2,354.1,295.8,354.1,341.4z"/>
		
			<linearGradient id="SVGID_12_" gradientUnits="userSpaceOnUse" x1="766.261" y1="768.2396" x2="766.261" y2="767.8317" gradientTransform="matrix(627.1428 0 0 -1355.5713 -480034.7812 1041641.875)">
			<stop  offset="0" style="stop-color:#FF1F5E"/>
			<stop  offset="1" style="stop-color:#1E58F0"/>
		</linearGradient>
		<path fill="url(#SVGID_12_)" d="M505.2,773.7c32.6-17.3,54.8-51.6,54.8-91c0-40-22.8-74.6-56.1-91.7c10.7,29,16.6,60.4,16.6,93.1
			C520.5,715.5,515.1,745.7,505.2,773.7z M523.4,513.4c0,56.9,46.1,103,103,103c6.1,0,12-0.5,17.8-1.5
			c-16.7-62.6-55.5-116.2-107.5-151.9C528.2,477.9,523.4,495.1,523.4,513.4z M412.4,434.1c13.5,6.5,28.7,10.2,44.7,10.2
			c12.1,0,23.7-2.1,34.5-5.9c-36.1-16-61.3-52.1-61.3-94.2c0-44.7,28.5-82.8,68.4-97c-12.7-5.6-26.8-8.8-41.6-8.8
			c-15.5,0-30.2,3.4-43.4,9.6c-11.1,29.5-17.2,61.4-17.2,94.8C396.4,374.9,402.1,405.6,412.4,434.1z"/>
		<g opacity="0.65" style="mix-blend-mode: overlay">
			
				<radialGradient id="SVGID_13_" cx="534.3011" cy="681.0115" r="183.2274" gradientTransform="matrix(1 0 0 -1 0 1024)" gradientUnits="userSpaceOnUse">
				<stop  offset="0" style="stop-color:#8F8F8F"/>
				<stop  offset="0.5944" style="stop-color:#8F8F8F"/>
				<stop  offset="0.7" style="stop-color:#C5C5C5"/>
				<stop  offset="0.7556" style="stop-color:#D9D9D9"/>
				<stop  offset="1" style="stop-color:#FFFFFF"/>
			</radialGradient>
			<path fill="url(#SVGID_13_)" d="M354.1,341.4c0,56.9,46.1,103,103,103c12.1,0,23.7-2.1,34.5-5.9c-36.1-16-61.3-52.1-61.3-94.2
				c0-44.7,28.5-82.8,68.4-97c-12.7-5.6-26.8-8.8-41.6-8.8C400.2,238.4,354.1,284.5,354.1,341.4z"/>
			
				<radialGradient id="SVGID_14_" cx="534.3011" cy="681.0115" r="270.8922" gradientTransform="matrix(1 0 0 -1 0 1024)" gradientUnits="userSpaceOnUse">
				<stop  offset="0" style="stop-color:#FFFFFF"/>
				<stop  offset="0.2778" style="stop-color:#FFFFFF"/>
				<stop  offset="0.7722" style="stop-color:#FFFFFF"/>
				<stop  offset="0.8778" style="stop-color:#D8D8D8"/>
				<stop  offset="0.9333" style="stop-color:#C1C1C1"/>
				<stop  offset="1" style="stop-color:#8F8F8F"/>
			</radialGradient>
			<path fill="url(#SVGID_14_)" d="M378.4,562.5c7.9-14.6,12.4-31.3,12.4-49.1c0-56.9-46.1-103-103-103c-5.1,0-10.1,0.4-15.1,1.1
				C289.2,473.5,327.3,526.7,378.4,562.5z"/>
			
				<radialGradient id="SVGID_15_" cx="385.034" cy="342.5937" r="270.8922" gradientTransform="matrix(1 0 0 -1 0 1024)" gradientUnits="userSpaceOnUse">
				<stop  offset="0" style="stop-color:#FFFFFF"/>
				<stop  offset="0.2778" style="stop-color:#FFFFFF"/>
				<stop  offset="0.7722" style="stop-color:#FFFFFF"/>
				<stop  offset="0.8778" style="stop-color:#D8D8D8"/>
				<stop  offset="0.9333" style="stop-color:#C1C1C1"/>
				<stop  offset="1" style="stop-color:#8F8F8F"/>
			</radialGradient>
			<path fill="url(#SVGID_15_)" d="M523.4,513.4c0,56.9,46.1,103,103,103c6.1,0,12-0.5,17.8-1.5c-16.7-62.6-55.5-116.2-107.5-151.9
				C528.2,477.9,523.4,495.1,523.4,513.4z"/>
			
				<radialGradient id="SVGID_16_" cx="385.034" cy="342.5937" r="183.2274" gradientTransform="matrix(1 0 0 -1 0 1024)" gradientUnits="userSpaceOnUse">
				<stop  offset="0" style="stop-color:#8F8F8F"/>
				<stop  offset="0.5944" style="stop-color:#8F8F8F"/>
				<stop  offset="0.7" style="stop-color:#C5C5C5"/>
				<stop  offset="0.7556" style="stop-color:#D9D9D9"/>
				<stop  offset="1" style="stop-color:#FFFFFF"/>
			</radialGradient>
			<path fill="url(#SVGID_16_)" d="M421.8,779.4c11,4,22.9,6.2,35.3,6.2c56.9,0,103-46.1,103-103c0-56.9-46.1-103-103-103
				c-12.4,0-24.3,2.2-35.3,6.2c39.5,14.4,67.7,52.3,67.7,96.8C489.5,727.1,461.3,765,421.8,779.4z"/>
		</g>
	</g>
	<g>
		<g>
			<path fill="#FFFFFF" d="M911,618.3c-18.5,0-34-2.9-46.4-8.7c-12.4-5.8-21.9-13.4-28.4-22.9c-6.5-9.4-9.9-19.3-10.3-29.7
				c0-1.9,0.6-3.5,1.8-4.8c1.2-1.3,2.7-1.9,4.5-1.9h26.6c2.6,0,4.5,0.6,5.8,1.7c1.3,1.2,2.4,2.6,3.4,4.3c1.2,4,3.5,8,6.9,11.9
				c3.4,3.9,8,7.1,13.9,9.7c5.9,2.5,13.3,3.8,22.2,3.8c14.3,0,25-2.5,32.1-7.6c7.1-5.1,10.6-12,10.6-20.7c0-6.1-1.9-11.1-5.7-14.8
				c-3.8-3.7-9.6-7.1-17.5-10.2c-7.9-3.1-18.3-6.3-31.2-9.7c-14.9-3.8-27.4-8.4-37.5-13.8c-10-5.4-17.6-12.2-22.7-20.5
				c-5.1-8.3-7.6-18.7-7.6-31.5c0-12.3,3.1-23.2,9.4-32.7c6.3-9.5,15.2-17,26.9-22.6c11.6-5.5,25.5-8.3,41.6-8.3
				c12.9,0,24.4,1.9,34.3,5.6c9.9,3.7,18.2,8.6,24.8,14.6c6.6,6,11.6,12.5,15.1,19.4c3.5,6.9,5.3,13.6,5.5,20.2
				c0,1.7-0.6,3.2-1.6,4.6c-1.1,1.4-2.6,2.1-4.6,2.1h-27.8c-1.6,0-3.2-0.4-4.8-1.3c-1.6-0.8-2.9-2.4-3.9-4.8
				c-1.2-6.6-5.1-12.2-11.6-16.8c-6.6-4.7-15-7-25.4-7c-10.7,0-19.4,2.1-26,6.4c-6.6,4.2-9.8,10.8-9.8,19.7c0,5.9,1.6,10.9,4.9,14.8
				c3.3,3.9,8.6,7.4,15.8,10.3c7.3,3,16.9,6.1,28.8,9.5c16.9,4,30.7,8.7,41.5,14c10.7,5.3,18.6,12,23.6,20.2c5,8.2,7.5,18.5,7.5,31
				c0,14-3.5,25.9-10.6,35.7c-7.1,9.8-17,17.4-29.7,22.7C942.8,615.6,927.9,618.3,911,618.3z"/>
			<path fill="#FFFFFF" d="M1034,615.1c-2,0-3.7-0.7-5.1-2.2c-1.4-1.5-2.1-3.3-2.1-5.4V397.1c0-2.1,0.7-3.9,2.1-5.4
				c1.4-1.5,3.1-2.2,5.1-2.2h24.2c2.2,0,3.9,0.7,5.2,2.2c1.3,1.5,1.9,3.3,1.9,5.4v108.7l50.1-50.5c1.8-1.7,3.4-3,4.8-4
				c1.4-1,3.5-1.4,6.3-1.4h27.8c2,0,3.6,0.6,4.8,1.9c1.2,1.3,1.8,3,1.8,5.1c0,0.8-0.2,1.8-0.6,2.9c-0.4,1.1-1.2,2-2.4,2.9
				l-61.5,61.3l68.9,78.8c2,2.1,3,3.9,3,5.4c0,2.1-0.6,3.8-1.9,5.1c-1.3,1.3-2.8,1.9-4.6,1.9h-28.4c-3,0-5.1-0.5-6.4-1.4
				c-1.3-1-2.8-2.3-4.6-4l-57-63.9v61.6c0,2.1-0.6,3.9-1.9,5.4c-1.3,1.5-3,2.2-5.2,2.2H1034z"/>
			<path fill="#FFFFFF" d="M1218.7,675.5c-1.6,0-3-0.6-4.2-1.9c-1.2-1.3-1.8-2.8-1.8-4.4c0-0.8,0-1.6,0.1-2.4c0.1-0.7,0.4-1.6,1-2.7
				l23.3-58.8l-57.3-143.9c-0.8-2.1-1.2-3.6-1.2-4.4c0.2-1.9,0.9-3.5,2.1-4.9c1.2-1.4,2.7-2.1,4.5-2.1h24.2c2.4,0,4.2,0.6,5.4,1.9
				c1.2,1.3,2.1,2.7,2.7,4.1l39.7,103.9l40.9-103.9c0.6-1.7,1.5-3.1,2.7-4.3c1.2-1.2,3-1.7,5.4-1.7h23.9c1.6,0,3,0.6,4.3,1.9
				c1.3,1.3,1.9,2.8,1.9,4.4c0,1.3-0.4,3-1.2,5.1l-84.5,208.1c-0.8,1.7-1.8,3.1-3,4.3c-1.2,1.2-3,1.7-5.4,1.7H1218.7z"/>
			<path fill="#FFFFFF" d="M1369.4,615.1c-2,0-3.7-0.7-5.1-2.2c-1.4-1.5-2.1-3.3-2.1-5.4V397.1c0-2.1,0.7-3.9,2.1-5.4
				c1.4-1.5,3.1-2.2,5.1-2.2h24.8c2,0,3.7,0.7,5.1,2.2c1.4,1.5,2.1,3.3,2.1,5.4v210.3c0,2.1-0.7,3.9-2.1,5.4
				c-1.4,1.5-3.1,2.2-5.1,2.2H1369.4z"/>
			<path fill="#FFFFFF" d="M1447,422.6c-2.2,0-3.9-0.7-5.2-2.1c-1.3-1.4-1.9-3.2-1.9-5.6v-22.9c0-2.1,0.6-3.9,1.9-5.4
				c1.3-1.5,3-2.2,5.2-2.2h27.2c2.2,0,4,0.7,5.4,2.2c1.4,1.5,2.1,3.3,2.1,5.4v22.9c0,2.3-0.7,4.2-2.1,5.6c-1.4,1.4-3.2,2.1-5.4,2.1
				H1447z M1448.2,615.1c-2,0-3.7-0.7-5.1-2.2c-1.4-1.5-2.1-3.3-2.1-5.4v-150c0-2.1,0.7-3.9,2.1-5.4c1.4-1.5,3.1-2.2,5.1-2.2h24.8
				c2.2,0,3.9,0.7,5.2,2.2c1.3,1.5,1.9,3.3,1.9,5.4v150c0,2.1-0.6,3.9-1.9,5.4c-1.3,1.5-3,2.2-5.2,2.2H1448.2z"/>
			<path fill="#FFFFFF" d="M1527,615.1c-2,0-3.7-0.7-5.1-2.2c-1.4-1.5-2.1-3.3-2.1-5.4v-150c0-2.1,0.7-3.9,2.1-5.4
				c1.4-1.5,3.1-2.2,5.1-2.2h24.5c2,0,3.7,0.7,5.1,2.2c1.4,1.5,2.1,3.3,2.1,5.4v13c5.2-6.8,11.8-12.4,19.8-17
				c8.1-4.6,18.1-6.8,30-6.8c12.1,0,22.7,2.9,31.6,8.7c9,5.8,15.9,14,20.7,24.6c4.9,10.6,7.3,23.3,7.3,38.1v89.3
				c0,2.1-0.7,3.9-2.1,5.4c-1.4,1.5-3.1,2.2-5.1,2.2h-26.3c-2,0-3.7-0.7-5.1-2.2c-1.4-1.5-2.1-3.3-2.1-5.4v-87.4
				c0-12.3-2.8-21.9-8.5-28.9c-5.7-7-13.9-10.5-24.6-10.5c-10.3,0-18.6,3.5-24.8,10.5c-6.2,7-9.3,16.6-9.3,28.9v87.4
				c0,2.1-0.7,3.9-2.1,5.4c-1.4,1.5-3.1,2.2-5.1,2.2H1527z"/>
			<path fill="#FFFFFF" d="M1772.9,618.3c-22.1,0-39.6-6.8-52.5-20.3c-12.9-13.6-19.9-32.8-20.9-57.8c-0.2-2.1-0.3-4.8-0.3-8.1
				c0-3.3,0.1-5.9,0.3-7.8c0.8-15.9,4.2-29.7,10.3-41.3c6.1-11.6,14.5-20.6,25.2-26.8c10.7-6.2,23.4-9.4,37.9-9.4
				c16.1,0,29.6,3.5,40.6,10.6c10.9,7.1,19.2,16.9,24.8,29.5c5.6,12.6,8.4,27.2,8.4,43.7v6.7c0,2.1-0.7,3.9-2.1,5.4
				c-1.4,1.5-3.2,2.2-5.4,2.2h-99.1c0,1.3,0,2.1,0,2.5c0.2,7.4,1.5,14.2,4,20.5c2.5,6.2,6.2,11.3,11,15.1c4.9,3.8,10.7,5.7,17.5,5.7
				c5.6,0,10.2-0.9,14-2.7c3.8-1.8,6.9-3.9,9.3-6.2c2.4-2.3,4.1-4.2,5.1-5.7c1.8-2.5,3.2-4.1,4.3-4.6c1.1-0.5,2.7-0.8,4.9-0.8h25.7
				c2,0,3.6,0.6,4.9,1.9c1.3,1.3,1.8,2.9,1.6,4.8c-0.2,3.4-1.8,7.5-4.9,12.4c-3.1,4.9-7.5,9.6-13.3,14.3c-5.8,4.7-13,8.5-21.6,11.6
				C1794,616.7,1784.1,618.3,1772.9,618.3z M1740.1,518.2h66v-1c0-8.3-1.3-15.5-3.9-21.6c-2.6-6.1-6.4-11-11.3-14.6
				c-5-3.6-10.9-5.4-17.9-5.4c-7,0-12.9,1.8-17.9,5.4c-5,3.6-8.7,8.5-11.2,14.6c-2.5,6.1-3.7,13.3-3.7,21.6V518.2z"/>
		</g>
	</g>
</g>
</svg>
