<?xml version="1.0" encoding="UTF-8"?>
<svg xmlns="http://www.w3.org/2000/svg" xmlns:xlink="http://www.w3.org/1999/xlink" viewBox="0 0 1024 1024">
  <defs>
    <style>
      .cls-1 {
        fill: url(#linear-gradient-2);
      }

      .cls-2 {
        fill: url(#radial-gradient-7);
      }

      .cls-3 {
        fill: url(#radial-gradient-10);
      }

      .cls-4 {
        fill: url(#radial-gradient-8);
      }

      .cls-5 {
        fill: url(#radial-gradient-5);
      }

      .cls-6 {
        fill: url(#radial-gradient-4);
      }

      .cls-7 {
        isolation: isolate;
      }

      .cls-8 {
        fill: url(#radial-gradient-6);
      }

      .cls-9 {
        fill: url(#radial-gradient-12);
      }

      .cls-10 {
        fill: url(#radial-gradient);
      }

      .cls-11 {
        mix-blend-mode: overlay;
        opacity: .65;
      }

      .cls-12 {
        fill: url(#radial-gradient-2);
      }

      .cls-13 {
        fill: #121212;
      }

      .cls-14 {
        fill: url(#radial-gradient-3);
      }

      .cls-15 {
        mask: url(#mask1_1_);
      }

      .cls-16 {
        fill: url(#linear-gradient-3);
      }

      .cls-17 {
        fill: url(#linear-gradient);
      }

      .cls-18 {
        mix-blend-mode: color-burn;
        opacity: .6;
      }

      .cls-19 {
        fill: url(#radial-gradient-11);
      }

      .cls-20 {
        fill: url(#radial-gradient-9);
      }
    </style>
    <filter id="Adobe_OpacityMaskFilter" filterUnits="userSpaceOnUse" x="101.2" y="114" width="818" height="799.8">
			<feColorMatrix  type="matrix" values="1 0 0 0 0  0 1 0 0 0  0 0 1 0 0  0 0 0 1 0"/>
	</filter>
	<mask maskUnits="userSpaceOnUse" x="101.2" y="114" width="818" height="799.8" id="mask1_1_">
		
			<linearGradient id="SVGID_00000106868861875696096590000005941986116157405103_" gradientUnits="userSpaceOnUse" x1="256.0607" y1="768.1738" x2="255.9752" y2="767.8669" gradientTransform="matrix(1496 0 0 -1462 -382516 1123356)">
			<stop  offset="0" style="stop-color:#FFFFFF"/>
			<stop  offset="1" style="stop-color:#000000"/>
		</linearGradient>
		
			<rect x="40" y="87.1" style="fill:url(#SVGID_00000106868861875696096590000005941986116157405103_);filter:url(#Adobe_OpacityMaskFilter);" width="887.7" height="867.5"/>
	</mask>
	<linearGradient id="linear-gradient" x1="255.86" y1="767.77" x2="256.06" y2="768.34" gradientTransform="translate(-352351.11 1035739.54) scale(1378.57 -1347.86)" gradientUnits="userSpaceOnUse">
      <stop offset="0" stop-color="#e8dde7"/>
      <stop offset="1" stop-color="#f6f6f6"/>
    </linearGradient>
    <radialGradient id="radial-gradient" cx="401.92" cy="257.43" fx="401.92" fy="257.43" r="596.95" gradientTransform="translate(0 1024) scale(1 -1)" gradientUnits="userSpaceOnUse">
      <stop offset="0" stop-color="#1757ff"/>
      <stop offset=".67" stop-color="#1757ff"/>
      <stop offset="1" stop-color="#e8dde7"/>
    </radialGradient>
    <radialGradient id="radial-gradient-2" cx="626.22" cy="765.97" fx="626.22" fy="765.97" r="596.95" gradientTransform="translate(0 1024) scale(1 -1)" gradientUnits="userSpaceOnUse">
      <stop offset="0" stop-color="#1757ff"/>
      <stop offset=".67" stop-color="#1757ff"/>
      <stop offset="1" stop-color="#e8dde7"/>
    </radialGradient>
    <radialGradient id="radial-gradient-3" cx="626.22" cy="765.97" fx="626.22" fy="765.97" r="156.66" gradientTransform="translate(0 1024) scale(1 -1)" gradientUnits="userSpaceOnUse">
      <stop offset="0" stop-color="#fff"/>
      <stop offset="1" stop-color="#1757ff"/>
    </radialGradient>
    <radialGradient id="radial-gradient-4" cx="401.92" cy="257.43" fx="401.92" fy="257.43" r="156.66" gradientTransform="translate(0 1024) scale(1 -1)" gradientUnits="userSpaceOnUse">
      <stop offset="0" stop-color="#fff"/>
      <stop offset="1" stop-color="#1757ff"/>
    </radialGradient>
    <mask id="mask" x="39.95" y="87.13" width="887.71" height="867.54" maskUnits="userSpaceOnUse"/>
    <radialGradient id="radial-gradient-5" cx="401.92" cy="257.43" fx="401.92" fy="257.43" r="596.95" gradientTransform="translate(0 1024) scale(1 -1)" gradientUnits="userSpaceOnUse">
      <stop offset="0" stop-color="#ff1f5e"/>
      <stop offset=".67" stop-color="#ff1f5e"/>
      <stop offset="1" stop-color="#e8dde7"/>
    </radialGradient>
    <radialGradient id="radial-gradient-6" cx="626.22" cy="765.97" fx="626.22" fy="765.97" r="596.95" gradientTransform="translate(0 1024) scale(1 -1)" gradientUnits="userSpaceOnUse">
      <stop offset="0" stop-color="#ff1f5e"/>
      <stop offset=".67" stop-color="#ff1f5e"/>
      <stop offset="1" stop-color="#e8dde7"/>
    </radialGradient>
    <radialGradient id="radial-gradient-7" cx="626.22" cy="765.97" fx="626.22" fy="765.97" r="156.66" gradientTransform="translate(0 1024) scale(1 -1)" gradientUnits="userSpaceOnUse">
      <stop offset="0" stop-color="#fff"/>
      <stop offset="1" stop-color="#ff1f5e"/>
    </radialGradient>
    <radialGradient id="radial-gradient-8" cx="401.92" cy="257.43" fx="401.92" fy="257.43" r="156.66" gradientTransform="translate(0 1024) scale(1 -1)" gradientUnits="userSpaceOnUse">
      <stop offset="0" stop-color="#fff"/>
      <stop offset="1" stop-color="#ff1f5e"/>
    </radialGradient>
    <linearGradient id="linear-gradient-2" x1="255.43" y1="768.49" x2="255.43" y2="767.84" gradientTransform="translate(-162149.18 1054656.45) scale(636.46 -1372.5)" gradientUnits="userSpaceOnUse">
      <stop offset="0" stop-color="#ff1f5e"/>
      <stop offset="1" stop-color="#1e58f0"/>
    </linearGradient>
    <linearGradient id="linear-gradient-3" x1="255.21" y1="768.34" x2="255.21" y2="767.73" gradientTransform="translate(-159449.69 1041641.89) scale(627.14 -1355.57)" gradientUnits="userSpaceOnUse">
      <stop offset="0" stop-color="#ff1f5e"/>
      <stop offset="1" stop-color="#1e58f0"/>
    </linearGradient>
    <radialGradient id="radial-gradient-9" cx="626.22" cy="765.97" fx="626.22" fy="765.97" r="275.33" gradientTransform="translate(0 1024) scale(1 -1)" gradientUnits="userSpaceOnUse">
      <stop offset="0" stop-color="#8f8f8f"/>
      <stop offset=".59" stop-color="#8f8f8f"/>
      <stop offset=".7" stop-color="#c5c5c5"/>
      <stop offset=".76" stop-color="#d9d9d9"/>
      <stop offset="1" stop-color="#fff"/>
    </radialGradient>
    <radialGradient id="radial-gradient-10" cx="626.22" cy="765.97" fx="626.22" fy="765.97" r="407.07" gradientTransform="translate(0 1024) scale(1 -1)" gradientUnits="userSpaceOnUse">
      <stop offset="0" stop-color="#fff"/>
      <stop offset=".28" stop-color="#fff"/>
      <stop offset=".77" stop-color="#fff"/>
      <stop offset=".88" stop-color="#d8d8d8"/>
      <stop offset=".93" stop-color="#c1c1c1"/>
      <stop offset="1" stop-color="#8f8f8f"/>
    </radialGradient>
    <radialGradient id="radial-gradient-11" cx="401.92" cy="257.43" fx="401.92" fy="257.43" r="407.07" gradientTransform="translate(0 1024) scale(1 -1)" gradientUnits="userSpaceOnUse">
      <stop offset="0" stop-color="#fff"/>
      <stop offset=".28" stop-color="#fff"/>
      <stop offset=".77" stop-color="#fff"/>
      <stop offset=".88" stop-color="#d8d8d8"/>
      <stop offset=".93" stop-color="#c1c1c1"/>
      <stop offset="1" stop-color="#8f8f8f"/>
    </radialGradient>
    <radialGradient id="radial-gradient-12" cx="401.92" cy="257.43" fx="401.92" fy="257.43" r="275.33" gradientTransform="translate(0 1024) scale(1 -1)" gradientUnits="userSpaceOnUse">
      <stop offset="0" stop-color="#8f8f8f"/>
      <stop offset=".59" stop-color="#8f8f8f"/>
      <stop offset=".7" stop-color="#c5c5c5"/>
      <stop offset=".76" stop-color="#d9d9d9"/>
      <stop offset="1" stop-color="#fff"/>
    </radialGradient>
  </defs>
  <g class="cls-7">
    <g id="skyline_20logo_20standalone.fw-Page_201" data-name="skyline%20logo%20standalone.fw-Page%201">
      <rect class="cls-13" width="1024" height="1024"/>
      <path class="cls-17" d="M355.47,768.43c0,66.83,42.38,123.77,101.72,145.4,59.35-21.63,144.11-78.57,144.11-145.4s-84.76-123.77-144.11-145.4c-59.35,21.63-101.72,78.57-101.72,145.4Zm206.61-367.08c59.92-21.33,102.81-78.54,102.81-145.78,0-63.18-37.88-117.52-92.17-141.55-59.91,21.33-145.19,78.55-145.19,145.78,0,63.19,80.26,117.52,134.55,141.55Zm-460.92,112.77c0,85.44,69.26,154.71,154.71,154.71,58.75,0,109.86-32.76,136.06-81-68.24-74.77-103.21-126.69-158.69-226.76-74.72,10.95-132.07,75.3-132.07,153.05Zm690.03,152.42c72.72-12.65,128-76.08,128-152.42,0-85.44-69.26-154.71-154.71-154.71-57.89,0-108.34,31.8-134.87,78.88,62.81,70.53,115.8,134.11,161.57,228.24Z"/>
      <g class="cls-18">
		<g>
          <path class="cls-10" d="M791.18,666.54c72.72-12.65,128-76.08,128-152.42,0-85.44-69.26-154.71-154.71-154.71-57.89,0-108.34,31.8-134.87,78.88,62.81,70.53,115.8,134.11,161.57,228.24Z"/>
          <path class="cls-12" d="M101.15,514.12c0,85.44,69.26,154.71,154.71,154.71,58.75,0,109.86-32.76,136.06-81-68.24-74.77-103.21-126.69-158.69-226.76-74.72,10.95-132.07,75.3-132.07,153.05Z"/>
          <path class="cls-14" d="M562.07,401.35c59.92-21.33,102.81-78.54,102.81-145.78,0-63.18-37.88-117.52-92.17-141.55-59.91,21.33-145.19,78.55-145.19,145.78,0,63.19,80.26,117.52,134.55,141.55Z"/>
          <path class="cls-6" d="M355.47,768.43c0,66.83,42.38,123.77,101.72,145.4,59.35-21.63,144.11-78.57,144.11-145.4s-84.76-123.77-144.11-145.4c-59.35,21.63-101.72,78.57-101.72,145.4Z"/>
        </g>
		<g class="cls-15">
			<g>
				<path class="cls-5" d="M791.18,666.54c72.72-12.65,128-76.08,128-152.42,0-85.44-69.26-154.71-154.71-154.71-57.89,0-108.34,31.8-134.87,78.88,62.81,70.53,115.8,134.11,161.57,228.24Z"/>
				<path class="cls-8" d="M101.15,514.12c0,85.44,69.26,154.71,154.71,154.71,58.75,0,109.86-32.76,136.06-81-68.24-74.77-103.21-126.69-158.69-226.76-74.72,10.95-132.07,75.3-132.07,153.05Z"/>
				<path class="cls-2" d="M562.07,401.35c59.92-21.33,102.81-78.54,102.81-145.78,0-63.18-37.88-117.52-92.17-141.55-59.91,21.33-145.19,78.55-145.19,145.78,0,63.19,80.26,117.52,134.55,141.55Z"/>
				<path class="cls-4" d="M355.47,768.43c0,66.83,42.38,123.77,101.72,145.4,59.35-21.63,144.11-78.57,144.11-145.4s-84.76-123.77-144.11-145.4c-59.35,21.63-101.72,78.57-101.72,145.4Z"/>
			</g>
		</g>
      </g>
      <path class="cls-1" d="M457.19,913.83c16.53,6.02,34.37,9.3,52.98,9.3,36.8,0,70.61-12.85,97.17-34.31l3.56-237.82c-27.07-23.24-62.25-37.28-100.73-37.28-18.61,0-36.45,3.28-52.98,9.3,59.35,21.63,101.72,78.57,101.72,145.4s-42.38,123.77-101.72,145.4Zm-65.27-326.01c11.9-21.91,18.65-47.02,18.65-73.71,0-85.44-69.26-154.71-154.71-154.71-7.69,0-15.25,.57-22.63,1.65,24.67,93.12,81.86,173,158.69,226.76Zm-36.45-332.26c0,68.41,44.4,126.45,105.96,146.86V108.71c-61.56,20.42-105.96,78.45-105.96,146.86Z"/>
      <path class="cls-16" d="M582.46,905.25c49.02-25.95,82.42-77.49,82.42-136.82s-34.25-112.17-84.3-137.79c16.15,43.58,24.96,90.71,24.96,139.91s-8.13,92.58-23.08,134.7Zm27.32-391.13c0,85.44,69.26,154.71,154.71,154.71,9.11,0,18.03-.78,26.7-2.29-25.09-94.08-83.38-174.6-161.57-228.24-12.63,22.41-19.84,48.27-19.84,75.83Zm-166.7-119.12c20.3,9.79,43.05,15.28,67.1,15.28,18.21,0,35.68-3.15,51.9-8.92-54.29-24.02-92.17-78.36-92.17-141.55,0-67.24,42.89-124.45,102.81-145.78-19.12-8.46-40.28-13.16-62.54-13.16s-45.39,5.15-65.21,14.37c-16.75,44.29-25.92,92.3-25.92,142.46s8.49,94.45,24.03,137.31Z"/>
      <g class="cls-11">
        <path class="cls-20" d="M355.47,255.57c0,85.44,69.26,154.71,154.71,154.71,18.21,0,35.68-3.15,51.9-8.92-54.29-24.02-92.17-78.36-92.17-141.55,0-67.24,42.89-124.45,102.81-145.78-19.12-8.46-40.28-13.16-62.54-13.16-85.44,0-154.71,69.26-154.71,154.71Z"/>
        <path class="cls-3" d="M391.92,587.83c11.9-21.91,18.65-47.02,18.65-73.71,0-85.44-69.26-154.71-154.71-154.71-7.69,0-15.25,.57-22.63,1.65,24.67,93.12,81.86,173,158.69,226.76Z"/>
        <path class="cls-19" d="M609.78,514.12c0,85.44,69.26,154.71,154.71,154.71,9.11,0,18.03-.78,26.7-2.29-25.09-94.08-83.38-174.6-161.57-228.24-12.63,22.41-19.84,48.27-19.84,75.83Z"/>
        <path class="cls-9" d="M457.19,913.83c16.53,6.02,34.37,9.3,52.98,9.3,85.44,0,154.71-69.26,154.71-154.71s-69.26-154.71-154.71-154.71c-18.61,0-36.45,3.28-52.98,9.3,59.35,21.63,101.72,78.57,101.72,145.4s-42.38,123.77-101.72,145.4Z"/>
      </g>
    </g>
  </g>
</svg>