<?xml version="1.0" encoding="utf-8"?>
<!-- Generator: Adobe Illustrator 25.3.0, SVG Export Plug-In . SVG Version: 6.00 Build 0)  -->
<svg version="1.1" xmlns="http://www.w3.org/2000/svg" xmlns:xlink="http://www.w3.org/1999/xlink" x="0px" y="0px"
	 viewBox="0 0 1024 1024" style="enable-background:new 0 0 1024 1024;" xml:space="preserve">
<style type="text/css">
	.st0{fill:#121212;}
	.st1{fill:url(#SVGID_1_);}
	.st2{opacity:0.6;mix-blend-mode:color-burn;}
	.st3{fill:url(#SVGID_2_);}
	.st4{fill:url(#SVGID_3_);}
	.st5{fill:url(#SVGID_4_);}
	.st6{fill:url(#SVGID_5_);}
	.st7{fill:url(#SVGID_6_);filter:url(#Adobe_OpacityMaskFilter);}
	.st8{mask:url(#mask1_1_);}
	.st9{fill:url(#SVGID_7_);}
	.st10{fill:url(#SVGID_8_);}
	.st11{fill:url(#SVGID_9_);}
	.st12{fill:url(#SVGID_10_);}
	.st13{fill:url(#SVGID_11_);}
	.st14{fill:url(#SVGID_12_);}
	.st15{opacity:0.65;mix-blend-mode:overlay;}
	.st16{fill:url(#SVGID_13_);}
	.st17{fill:url(#SVGID_14_);}
	.st18{fill:url(#SVGID_15_);}
	.st19{fill:url(#SVGID_16_);}
</style>
<g id="Background">
	<rect class="st0" width="1024" height="1024"/>
</g>
<g id="Logo">
	
		<linearGradient id="SVGID_1_" gradientUnits="userSpaceOnUse" x1="255.8762" y1="767.813" x2="256.0481" y2="768.2961" gradientTransform="matrix(1378.5713 0 0 -1347.8571 -352351.0938 1035739.5625)">
		<stop  offset="0" style="stop-color:#E8DDE7"/>
		<stop  offset="1" style="stop-color:#F6F6F6"/>
	</linearGradient>
	<path class="st1" d="M376.9,732.8c0,57.6,36.5,106.6,87.6,125.2c51.1-18.6,124.1-67.7,124.1-125.2s-73-106.6-124.1-125.2
		C413.4,626.3,376.9,675.3,376.9,732.8z M554.9,416.7c51.6-18.4,88.5-67.6,88.5-125.6c0-54.4-32.6-101.2-79.4-121.9
		c-51.6,18.4-125,67.6-125,125.6C439,349.2,508.1,396,554.9,416.7z M157.9,513.8c0,73.6,59.7,133.2,133.2,133.2
		c50.6,0,94.6-28.2,117.2-69.8c-58.8-64.4-88.9-109.1-136.7-195.3C207.3,391.4,157.9,446.9,157.9,513.8z M752.2,645.1
		c62.6-10.9,110.2-65.5,110.2-131.3c0-73.6-59.7-133.2-133.2-133.2c-49.9,0-93.3,27.4-116.2,67.9C667.1,509.3,712.8,564,752.2,645.1
		z"/>
	<g class="st2">
		<g>
			
				<radialGradient id="SVGID_2_" cx="416.9401" cy="292.7568" r="514.1228" gradientTransform="matrix(1 0 0 -1 0 1024)" gradientUnits="userSpaceOnUse">
				<stop  offset="0" style="stop-color:#1757FF"/>
				<stop  offset="0.6667" style="stop-color:#1757FF"/>
				<stop  offset="1" style="stop-color:#E8DDE7"/>
			</radialGradient>
			<path class="st3" d="M752.2,645.1c62.6-10.9,110.2-65.5,110.2-131.3c0-73.6-59.7-133.2-133.2-133.2c-49.9,0-93.3,27.4-116.2,67.9
				C667.1,509.3,712.8,564,752.2,645.1z"/>
			
				<radialGradient id="SVGID_3_" cx="610.1194" cy="730.7322" r="514.1228" gradientTransform="matrix(1 0 0 -1 0 1024)" gradientUnits="userSpaceOnUse">
				<stop  offset="0" style="stop-color:#1757FF"/>
				<stop  offset="0.6667" style="stop-color:#1757FF"/>
				<stop  offset="1" style="stop-color:#E8DDE7"/>
			</radialGradient>
			<path class="st4" d="M157.9,513.8c0,73.6,59.7,133.2,133.2,133.2c50.6,0,94.6-28.2,117.2-69.8c-58.8-64.4-88.9-109.1-136.7-195.3
				C207.3,391.4,157.9,446.9,157.9,513.8z"/>
			
				<radialGradient id="SVGID_4_" cx="610.1194" cy="730.7322" r="134.9189" gradientTransform="matrix(1 0 0 -1 0 1024)" gradientUnits="userSpaceOnUse">
				<stop  offset="0" style="stop-color:#FFFFFF"/>
				<stop  offset="1" style="stop-color:#1757FF"/>
			</radialGradient>
			<path class="st5" d="M554.9,416.7c51.6-18.4,88.5-67.6,88.5-125.6c0-54.4-32.6-101.2-79.4-121.9c-51.6,18.4-125,67.6-125,125.6
				C439,349.2,508.1,396,554.9,416.7z"/>
			
				<radialGradient id="SVGID_5_" cx="416.9401" cy="292.7568" r="134.9189" gradientTransform="matrix(1 0 0 -1 0 1024)" gradientUnits="userSpaceOnUse">
				<stop  offset="0" style="stop-color:#FFFFFF"/>
				<stop  offset="1" style="stop-color:#1757FF"/>
			</radialGradient>
			<path class="st6" d="M376.9,732.8c0,57.6,36.5,106.6,87.6,125.2c51.1-18.6,124.1-67.7,124.1-125.2c0-57.6-73-106.6-124.1-125.2
				C413.4,626.3,376.9,675.3,376.9,732.8z"/>
		</g>
		<defs>
			<filter id="Adobe_OpacityMaskFilter" filterUnits="userSpaceOnUse" x="157.9" y="169.2" width="704.5" height="688.8">
				<feColorMatrix  type="matrix" values="1 0 0 0 0  0 1 0 0 0  0 0 1 0 0  0 0 0 1 0"/>
			</filter>
		</defs>
		<mask maskUnits="userSpaceOnUse" x="157.9" y="169.2" width="704.5" height="688.8" id="mask1_1_">
			
				<linearGradient id="SVGID_6_" gradientUnits="userSpaceOnUse" x1="256.0569" y1="768.1524" x2="255.9833" y2="767.8881" gradientTransform="matrix(1496 0 0 -1462 -382516 1123356)">
				<stop  offset="0" style="stop-color:#FFFFFF"/>
				<stop  offset="1" style="stop-color:#000000"/>
			</linearGradient>
			<rect x="105.2" y="146.1" class="st7" width="764.5" height="747.2"/>
		</mask>
		<g class="st8">
			
				<radialGradient id="SVGID_7_" cx="416.9401" cy="292.7568" r="514.1228" gradientTransform="matrix(1 0 0 -1 0 1024)" gradientUnits="userSpaceOnUse">
				<stop  offset="0" style="stop-color:#FF1F5E"/>
				<stop  offset="0.6667" style="stop-color:#FF1F5E"/>
				<stop  offset="1" style="stop-color:#E8DDE7"/>
			</radialGradient>
			<path class="st9" d="M752.2,645.1c62.6-10.9,110.2-65.5,110.2-131.3c0-73.6-59.7-133.2-133.2-133.2c-49.9,0-93.3,27.4-116.2,67.9
				C667.1,509.3,712.8,564,752.2,645.1z"/>
			
				<radialGradient id="SVGID_8_" cx="610.1194" cy="730.7322" r="514.1228" gradientTransform="matrix(1 0 0 -1 0 1024)" gradientUnits="userSpaceOnUse">
				<stop  offset="0" style="stop-color:#FF1F5E"/>
				<stop  offset="0.6667" style="stop-color:#FF1F5E"/>
				<stop  offset="1" style="stop-color:#E8DDE7"/>
			</radialGradient>
			<path class="st10" d="M157.9,513.8c0,73.6,59.7,133.2,133.2,133.2c50.6,0,94.6-28.2,117.2-69.8
				c-58.8-64.4-88.9-109.1-136.7-195.3C207.3,391.4,157.9,446.9,157.9,513.8z"/>
			
				<radialGradient id="SVGID_9_" cx="610.1194" cy="730.7322" r="134.9189" gradientTransform="matrix(1 0 0 -1 0 1024)" gradientUnits="userSpaceOnUse">
				<stop  offset="0" style="stop-color:#FFFFFF"/>
				<stop  offset="1" style="stop-color:#FF1F5E"/>
			</radialGradient>
			<path class="st11" d="M554.9,416.7c51.6-18.4,88.5-67.6,88.5-125.6c0-54.4-32.6-101.2-79.4-121.9c-51.6,18.4-125,67.6-125,125.6
				C439,349.2,508.1,396,554.9,416.7z"/>
			
				<radialGradient id="SVGID_10_" cx="416.9401" cy="292.7568" r="134.9189" gradientTransform="matrix(1 0 0 -1 0 1024)" gradientUnits="userSpaceOnUse">
				<stop  offset="0" style="stop-color:#FFFFFF"/>
				<stop  offset="1" style="stop-color:#FF1F5E"/>
			</radialGradient>
			<path class="st12" d="M376.9,732.8c0,57.6,36.5,106.6,87.6,125.2c51.1-18.6,124.1-67.7,124.1-125.2c0-57.6-73-106.6-124.1-125.2
				C413.4,626.3,376.9,675.3,376.9,732.8z"/>
		</g>
	</g>
	
		<linearGradient id="SVGID_11_" gradientUnits="userSpaceOnUse" x1="255.4478" y1="768.4246" x2="255.4478" y2="767.8687" gradientTransform="matrix(636.4644 0 0 -1372.5001 -162149.1719 1054656.5)">
		<stop  offset="0" style="stop-color:#FF1F5E"/>
		<stop  offset="1" style="stop-color:#1E58F0"/>
	</linearGradient>
	<path class="st13" d="M464.5,858.1c14.2,5.2,29.6,8,45.6,8c31.7,0,60.8-11.1,83.7-29.6l3.1-204.8c-23.3-20-53.6-32.1-86.8-32.1
		c-16,0-31.4,2.8-45.6,8c51.1,18.6,87.6,67.7,87.6,125.2S515.7,839.4,464.5,858.1z M408.3,577.3c10.2-18.9,16.1-40.5,16.1-63.5
		c0-73.6-59.7-133.2-133.2-133.2c-6.6,0-13.1,0.5-19.5,1.4C292.9,462.2,342.2,531,408.3,577.3z M376.9,291.2
		c0,58.9,38.2,108.9,91.3,126.5v-253C415.2,182.2,376.9,232.2,376.9,291.2z"/>
	
		<linearGradient id="SVGID_12_" gradientUnits="userSpaceOnUse" x1="255.1917" y1="768.299" x2="255.1917" y2="767.7711" gradientTransform="matrix(627.1428 0 0 -1355.5713 -159449.6875 1041641.875)">
		<stop  offset="0" style="stop-color:#FF1F5E"/>
		<stop  offset="1" style="stop-color:#1E58F0"/>
	</linearGradient>
	<path class="st14" d="M572.4,850.7c42.2-22.4,71-66.7,71-117.8c0-51.8-29.5-96.6-72.6-118.7c13.9,37.5,21.5,78.1,21.5,120.5
		C592.3,775.4,585.3,814.4,572.4,850.7z M596,513.8c0,73.6,59.7,133.2,133.2,133.2c7.8,0,15.5-0.7,23-2
		c-21.6-81-71.8-150.4-139.2-196.6C602.2,467.8,596,490.1,596,513.8z M452.4,411.2c17.5,8.4,37.1,13.2,57.8,13.2
		c15.7,0,30.7-2.7,44.7-7.7c-46.8-20.7-79.4-67.5-79.4-121.9c0-57.9,36.9-107.2,88.5-125.6c-16.5-7.3-34.7-11.3-53.9-11.3
		c-20.1,0-39.1,4.4-56.2,12.4c-14.4,38.1-22.3,79.5-22.3,122.7C431.7,334.5,439,374.3,452.4,411.2z"/>
	<g class="st15">
		
			<radialGradient id="SVGID_13_" cx="610.1194" cy="730.7322" r="237.1302" gradientTransform="matrix(1 0 0 -1 0 1024)" gradientUnits="userSpaceOnUse">
			<stop  offset="0" style="stop-color:#8F8F8F"/>
			<stop  offset="0.5944" style="stop-color:#8F8F8F"/>
			<stop  offset="0.7" style="stop-color:#C5C5C5"/>
			<stop  offset="0.7556" style="stop-color:#D9D9D9"/>
			<stop  offset="1" style="stop-color:#FFFFFF"/>
		</radialGradient>
		<path class="st16" d="M376.9,291.2c0,73.6,59.7,133.2,133.2,133.2c15.7,0,30.7-2.7,44.7-7.7c-46.8-20.7-79.4-67.5-79.4-121.9
			c0-57.9,36.9-107.2,88.5-125.6c-16.5-7.3-34.7-11.3-53.9-11.3C436.6,157.9,376.9,217.6,376.9,291.2z"/>
		
			<radialGradient id="SVGID_14_" cx="610.1194" cy="730.7322" r="350.5847" gradientTransform="matrix(1 0 0 -1 0 1024)" gradientUnits="userSpaceOnUse">
			<stop  offset="0" style="stop-color:#FFFFFF"/>
			<stop  offset="0.2778" style="stop-color:#FFFFFF"/>
			<stop  offset="0.7722" style="stop-color:#FFFFFF"/>
			<stop  offset="0.8778" style="stop-color:#D8D8D8"/>
			<stop  offset="0.9333" style="stop-color:#C1C1C1"/>
			<stop  offset="1" style="stop-color:#8F8F8F"/>
		</radialGradient>
		<path class="st17" d="M408.3,577.3c10.2-18.9,16.1-40.5,16.1-63.5c0-73.6-59.7-133.2-133.2-133.2c-6.6,0-13.1,0.5-19.5,1.4
			C292.9,462.2,342.2,531,408.3,577.3z"/>
		
			<radialGradient id="SVGID_15_" cx="416.9401" cy="292.7568" r="350.5847" gradientTransform="matrix(1 0 0 -1 0 1024)" gradientUnits="userSpaceOnUse">
			<stop  offset="0" style="stop-color:#FFFFFF"/>
			<stop  offset="0.2778" style="stop-color:#FFFFFF"/>
			<stop  offset="0.7722" style="stop-color:#FFFFFF"/>
			<stop  offset="0.8778" style="stop-color:#D8D8D8"/>
			<stop  offset="0.9333" style="stop-color:#C1C1C1"/>
			<stop  offset="1" style="stop-color:#8F8F8F"/>
		</radialGradient>
		<path class="st18" d="M596,513.8c0,73.6,59.7,133.2,133.2,133.2c7.8,0,15.5-0.7,23-2c-21.6-81-71.8-150.4-139.2-196.6
			C602.2,467.8,596,490.1,596,513.8z"/>
		
			<radialGradient id="SVGID_16_" cx="416.9401" cy="292.7568" r="237.1302" gradientTransform="matrix(1 0 0 -1 0 1024)" gradientUnits="userSpaceOnUse">
			<stop  offset="0" style="stop-color:#8F8F8F"/>
			<stop  offset="0.5944" style="stop-color:#8F8F8F"/>
			<stop  offset="0.7" style="stop-color:#C5C5C5"/>
			<stop  offset="0.7556" style="stop-color:#D9D9D9"/>
			<stop  offset="1" style="stop-color:#FFFFFF"/>
		</radialGradient>
		<path class="st19" d="M464.5,858.1c14.2,5.2,29.6,8,45.6,8c73.6,0,133.2-59.7,133.2-133.2s-59.7-133.2-133.2-133.2
			c-16,0-31.4,2.8-45.6,8c51.1,18.6,87.6,67.7,87.6,125.2C552.2,790.4,515.7,839.4,464.5,858.1z"/>
	</g>
</g>
</svg>
