<?xml version="1.0" encoding="utf-8"?>
<!-- Generator: Adobe Illustrator 25.3.0, SVG Export Plug-In . SVG Version: 6.00 Build 0)  -->
<svg version="1.1" id="skyline_x25_20logo_x25_20standalone.fw-Page_x25_201"
	 xmlns="http://www.w3.org/2000/svg" xmlns:xlink="http://www.w3.org/1999/xlink" x="0px" y="0px" viewBox="0 0 1024 1024"
	 enable-background="new 0 0 1024 1024" xml:space="preserve">
<rect fill="#121212" width="1024" height="1024"/>
<linearGradient id="SVGID_1_" gradientUnits="userSpaceOnUse" x1="999.3227" y1="-488.3261" x2="999.5223" y2="-488.887" gradientTransform="matrix(1378.5713 0 0 1347.8571 -1377264.125 659083.5)">
	<stop  offset="0" style="stop-color:#E8DDE7"/>
	<stop  offset="1" style="stop-color:#F6F6F6"/>
</linearGradient>
<path fill="url(#SVGID_1_)" d="M355.5,768.4c0,66.8,42.4,123.8,101.7,145.4c59.3-21.6,144.1-78.6,144.1-145.4S516.6,644.7,457.2,623
	C397.8,644.7,355.5,701.6,355.5,768.4z M562.1,401.4C622,380,664.9,322.8,664.9,255.6c0-63.2-37.9-117.5-92.2-141.6
	c-59.9,21.4-145.2,78.5-145.2,145.8C427.5,323,507.8,377.3,562.1,401.4z M101.2,514.1c0,85.5,69.3,154.7,154.7,154.7
	c58.8,0,109.9-32.8,136-81c-68.2-74.8-103.2-126.7-158.7-226.8C158.5,372,101.2,436.4,101.2,514.1z M791.2,666.5
	c72.7-12.6,128-76.1,128-152.4c0-85.5-69.3-154.7-154.7-154.7c-57.9,0-108.3,31.8-134.9,78.9C692.4,508.8,745.4,572.4,791.2,666.5z"
	/>
<g opacity="0.6" style="mix-blend-mode: color-burn">
	<g>
		
			<radialGradient id="SVGID_2_" cx="401.9197" cy="-721.4348" r="596.9525" gradientTransform="matrix(1 0 0 1 0 1488)" gradientUnits="userSpaceOnUse">
			<stop  offset="0" style="stop-color:#1757FF"/>
			<stop  offset="0.6667" style="stop-color:#1757FF"/>
			<stop  offset="1" style="stop-color:#E8DDE7"/>
		</radialGradient>
		<path fill="url(#SVGID_2_)" d="M791.2,666.5c72.7-12.6,128-76.1,128-152.4c0-85.5-69.3-154.7-154.7-154.7
			c-57.9,0-108.3,31.8-134.9,78.9C692.4,508.8,745.4,572.4,791.2,666.5z"/>
		
			<radialGradient id="SVGID_3_" cx="626.222" cy="-1229.9718" r="596.9525" gradientTransform="matrix(1 0 0 1 0 1488)" gradientUnits="userSpaceOnUse">
			<stop  offset="0" style="stop-color:#1757FF"/>
			<stop  offset="0.6667" style="stop-color:#1757FF"/>
			<stop  offset="1" style="stop-color:#E8DDE7"/>
		</radialGradient>
		<path fill="url(#SVGID_3_)" d="M101.2,514.1c0,85.5,69.3,154.7,154.7,154.7c58.8,0,109.9-32.8,136-81
			c-68.2-74.8-103.2-126.7-158.7-226.8C158.5,372,101.2,436.4,101.2,514.1z"/>
		
			<radialGradient id="SVGID_4_" cx="626.222" cy="-1229.9718" r="156.6555" gradientTransform="matrix(1 0 0 1 0 1488)" gradientUnits="userSpaceOnUse">
			<stop  offset="0" style="stop-color:#FFFFFF"/>
			<stop  offset="1" style="stop-color:#1757FF"/>
		</radialGradient>
		<path fill="url(#SVGID_4_)" d="M562.1,401.4C622,380,664.9,322.8,664.9,255.6c0-63.2-37.9-117.5-92.2-141.6
			c-59.9,21.4-145.2,78.5-145.2,145.8C427.5,323,507.8,377.3,562.1,401.4z"/>
		
			<radialGradient id="SVGID_5_" cx="401.9197" cy="-721.4348" r="156.6555" gradientTransform="matrix(1 0 0 1 0 1488)" gradientUnits="userSpaceOnUse">
			<stop  offset="0" style="stop-color:#FFFFFF"/>
			<stop  offset="1" style="stop-color:#1757FF"/>
		</radialGradient>
		<path fill="url(#SVGID_5_)" d="M355.5,768.4c0,66.8,42.4,123.8,101.7,145.4c59.3-21.6,144.1-78.6,144.1-145.4
			S516.6,644.7,457.2,623C397.8,644.7,355.5,701.6,355.5,768.4z"/>
	</g>
	<defs>
		<filter id="Adobe_OpacityMaskFilter" filterUnits="userSpaceOnUse" x="101.2" y="114" width="818" height="799.8">
			<feColorMatrix  type="matrix" values="1 0 0 0 0  0 1 0 0 0  0 0 1 0 0  0 0 0 1 0"/>
		</filter>
	</defs>
	<mask maskUnits="userSpaceOnUse" x="101.2" y="114" width="818" height="799.8" id="mask1_2_">
		
			<linearGradient id="SVGID_6_" gradientUnits="userSpaceOnUse" x1="999.5634" y1="-488.6827" x2="999.4779" y2="-488.3758" gradientTransform="matrix(1496 0 0 1462 -1494796 714740)">
			<stop  offset="0" style="stop-color:#FFFFFF"/>
			<stop  offset="1" style="stop-color:#000000"/>
		</linearGradient>
		<rect x="39.9" y="87.1" fill="url(#SVGID_6_)" filter="url(#Adobe_OpacityMaskFilter)" width="887.7" height="867.5"/>
	</mask>
	<g mask="url(#mask1_2_)">
		
			<radialGradient id="SVGID_7_" cx="401.9197" cy="-721.4348" r="596.9525" gradientTransform="matrix(1 0 0 1 0 1488)" gradientUnits="userSpaceOnUse">
			<stop  offset="0" style="stop-color:#FF1F5E"/>
			<stop  offset="0.6667" style="stop-color:#FF1F5E"/>
			<stop  offset="1" style="stop-color:#E8DDE7"/>
		</radialGradient>
		<path fill="url(#SVGID_7_)" d="M791.2,666.5c72.7-12.6,128-76.1,128-152.4c0-85.5-69.3-154.7-154.7-154.7
			c-57.9,0-108.3,31.8-134.9,78.9C692.4,508.8,745.4,572.4,791.2,666.5z"/>
		
			<radialGradient id="SVGID_8_" cx="626.222" cy="-1229.9718" r="596.9525" gradientTransform="matrix(1 0 0 1 0 1488)" gradientUnits="userSpaceOnUse">
			<stop  offset="0" style="stop-color:#FF1F5E"/>
			<stop  offset="0.6667" style="stop-color:#FF1F5E"/>
			<stop  offset="1" style="stop-color:#E8DDE7"/>
		</radialGradient>
		<path fill="url(#SVGID_8_)" d="M101.2,514.1c0,85.5,69.3,154.7,154.7,154.7c58.8,0,109.9-32.8,136-81
			c-68.2-74.8-103.2-126.7-158.7-226.8C158.5,372,101.2,436.4,101.2,514.1z"/>
		
			<radialGradient id="SVGID_9_" cx="626.222" cy="-1229.9718" r="156.6555" gradientTransform="matrix(1 0 0 1 0 1488)" gradientUnits="userSpaceOnUse">
			<stop  offset="0" style="stop-color:#FFFFFF"/>
			<stop  offset="1" style="stop-color:#FF1F5E"/>
		</radialGradient>
		<path fill="url(#SVGID_9_)" d="M562.1,401.4C622,380,664.9,322.8,664.9,255.6c0-63.2-37.9-117.5-92.2-141.6
			c-59.9,21.4-145.2,78.5-145.2,145.8C427.5,323,507.8,377.3,562.1,401.4z"/>
		
			<radialGradient id="SVGID_10_" cx="401.9197" cy="-721.4348" r="156.6555" gradientTransform="matrix(1 0 0 1 0 1488)" gradientUnits="userSpaceOnUse">
			<stop  offset="0" style="stop-color:#FFFFFF"/>
			<stop  offset="1" style="stop-color:#FF1F5E"/>
		</radialGradient>
		<path fill="url(#SVGID_10_)" d="M355.5,768.4c0,66.8,42.4,123.8,101.7,145.4c59.3-21.6,144.1-78.6,144.1-145.4
			S516.6,644.7,457.2,623C397.8,644.7,355.5,701.6,355.5,768.4z"/>
	</g>
</g>
<linearGradient id="SVGID_11_" gradientUnits="userSpaceOnUse" x1="998.2597" y1="-489.0275" x2="998.2597" y2="-488.3821" gradientTransform="matrix(636.4644 0 0 1372.5001 -634934.6875 671100.375)">
	<stop  offset="0" style="stop-color:#FF1F5E"/>
	<stop  offset="1" style="stop-color:#1E58F0"/>
</linearGradient>
<path fill="url(#SVGID_11_)" d="M457.2,913.8c16.5,6,34.4,9.3,53,9.3c36.8,0,70.6-12.9,97.2-34.3l3.6-237.8
	c-27.1-23.2-62.3-37.3-100.7-37.3c-18.6,0-36.5,3.3-53,9.3C516.6,644.7,559,701.6,559,768.5S516.6,892.2,457.2,913.8z M391.9,587.8
	c11.9-21.9,18.6-47,18.6-73.7c0-85.5-69.3-154.7-154.7-154.7c-7.7,0-15.3,0.6-22.6,1.6C257.9,454.2,315.1,534.1,391.9,587.8z
	 M355.5,255.6c0,68.4,44.4,126.5,106,146.8V108.7C399.9,129.1,355.5,187.1,355.5,255.6z"/>
<linearGradient id="SVGID_12_" gradientUnits="userSpaceOnUse" x1="998.0264" y1="-488.8898" x2="998.0264" y2="-488.2769" gradientTransform="matrix(627.1428 0 0 1355.5713 -625299.875 662825.875)">
	<stop  offset="0" style="stop-color:#FF1F5E"/>
	<stop  offset="1" style="stop-color:#1E58F0"/>
</linearGradient>
<path fill="url(#SVGID_12_)" d="M582.5,905.3c49-26,82.4-77.5,82.4-136.8c0-60.1-34.3-112.2-84.3-137.8c16.1,43.6,25,90.7,25,139.9
	C605.5,817.8,597.4,863.1,582.5,905.3z M609.8,514.1c0,85.5,69.3,154.7,154.7,154.7c9.1,0,18-0.8,26.7-2.3
	c-25.1-94.1-83.4-174.6-161.6-228.2C617,460.7,609.8,486.6,609.8,514.1z M443.1,395c20.3,9.8,43.1,15.3,67.1,15.3
	c18.2,0,35.7-3.1,51.9-8.9c-54.3-24-92.2-78.3-92.2-141.6c0-67.2,42.9-124.5,102.8-145.8c-19.1-8.4-40.3-13.2-62.5-13.2
	c-23.3,0-45.4,5.2-65.2,14.4c-16.7,44.3-25.9,92.3-25.9,142.4C419,305.9,427.5,352.2,443.1,395z"/>
<g opacity="0.65" style="mix-blend-mode: overlay">
	
		<radialGradient id="SVGID_13_" cx="626.222" cy="-1229.9718" r="275.3339" gradientTransform="matrix(1 0 0 1 0 1488)" gradientUnits="userSpaceOnUse">
		<stop  offset="0" style="stop-color:#8F8F8F"/>
		<stop  offset="0.5944" style="stop-color:#8F8F8F"/>
		<stop  offset="0.7" style="stop-color:#C5C5C5"/>
		<stop  offset="0.7556" style="stop-color:#D9D9D9"/>
		<stop  offset="1" style="stop-color:#FFFFFF"/>
	</radialGradient>
	<path fill="url(#SVGID_13_)" d="M355.5,255.6c0,85.5,69.3,154.7,154.7,154.7c18.2,0,35.7-3.1,51.9-8.9
		c-54.3-24-92.2-78.3-92.2-141.6c0-67.2,42.9-124.5,102.8-145.8c-19.1-8.4-40.3-13.2-62.5-13.2C424.7,100.9,355.5,170.1,355.5,255.6
		z"/>
	
		<radialGradient id="SVGID_14_" cx="626.222" cy="-1229.9718" r="407.067" gradientTransform="matrix(1 0 0 1 0 1488)" gradientUnits="userSpaceOnUse">
		<stop  offset="0" style="stop-color:#FFFFFF"/>
		<stop  offset="0.2778" style="stop-color:#FFFFFF"/>
		<stop  offset="0.7722" style="stop-color:#FFFFFF"/>
		<stop  offset="0.8778" style="stop-color:#D8D8D8"/>
		<stop  offset="0.9333" style="stop-color:#C1C1C1"/>
		<stop  offset="1" style="stop-color:#8F8F8F"/>
	</radialGradient>
	<path fill="url(#SVGID_14_)" d="M391.9,587.8c11.9-21.9,18.6-47,18.6-73.7c0-85.5-69.3-154.7-154.7-154.7c-7.7,0-15.3,0.6-22.6,1.6
		C257.9,454.2,315.1,534.1,391.9,587.8z"/>
	
		<radialGradient id="SVGID_15_" cx="401.9197" cy="-721.4348" r="407.067" gradientTransform="matrix(1 0 0 1 0 1488)" gradientUnits="userSpaceOnUse">
		<stop  offset="0" style="stop-color:#FFFFFF"/>
		<stop  offset="0.2778" style="stop-color:#FFFFFF"/>
		<stop  offset="0.7722" style="stop-color:#FFFFFF"/>
		<stop  offset="0.8778" style="stop-color:#D8D8D8"/>
		<stop  offset="0.9333" style="stop-color:#C1C1C1"/>
		<stop  offset="1" style="stop-color:#8F8F8F"/>
	</radialGradient>
	<path fill="url(#SVGID_15_)" d="M609.8,514.1c0,85.5,69.3,154.7,154.7,154.7c9.1,0,18-0.8,26.7-2.3
		c-25.1-94.1-83.4-174.6-161.6-228.2C617,460.7,609.8,486.6,609.8,514.1z"/>
	
		<radialGradient id="SVGID_16_" cx="401.9197" cy="-721.4348" r="275.3339" gradientTransform="matrix(1 0 0 1 0 1488)" gradientUnits="userSpaceOnUse">
		<stop  offset="0" style="stop-color:#8F8F8F"/>
		<stop  offset="0.5944" style="stop-color:#8F8F8F"/>
		<stop  offset="0.7" style="stop-color:#C5C5C5"/>
		<stop  offset="0.7556" style="stop-color:#D9D9D9"/>
		<stop  offset="1" style="stop-color:#FFFFFF"/>
	</radialGradient>
	<path fill="url(#SVGID_16_)" d="M457.2,913.8c16.5,6,34.4,9.3,53,9.3c85.5,0,154.7-69.3,154.7-154.7s-69.3-154.7-154.7-154.7
		c-18.6,0-36.5,3.3-53,9.3c59.3,21.6,101.7,78.6,101.7,145.4C558.9,835.3,516.6,892.2,457.2,913.8z"/>
</g>
</svg>
